HIERARCHY
ROOT mPelvis
{
	OFFSET 0.000000 1.067000 -0.000000
	CHANNELS 6 Xposition Yposition Zposition Xrotation Yrotation Zrotation
	JOINT mTorso
	{
		OFFSET 0.000000 0.084000 -0.000000
		CHANNELS 3 Xrotation Yrotation Zrotation
		JOINT mChest
		{
			OFFSET 0.000000 0.205000 -0.015000
			CHANNELS 3 Xrotation Yrotation Zrotation
			JOINT mNeck
			{
				OFFSET 0.000000 0.251000 -0.010000
				CHANNELS 3 Xrotation Yrotation Zrotation
				JOINT mHead
				{
					OFFSET 0.000000 0.076000 0.000000
					CHANNELS 3 Xrotation Yrotation Zrotation
					JOINT mSkull
					{
						OFFSET 0.000000 0.079000 0.000000
						CHANNELS 3 Xrotation Yrotation Zrotation
						End Site
						{
							OFFSET -0.000000 -0.100000 0.000000
						}
					}
					JOINT mEyeRight
					{
						OFFSET -0.036000 0.079000 0.098000
						CHANNELS 3 Xrotation Yrotation Zrotation
						End Site
						{
							OFFSET -0.000000 -0.100000 0.000000
						}
					}
					JOINT mEyeLeft
					{
						OFFSET 0.036000 0.079000 0.098000
						CHANNELS 3 Xrotation Yrotation Zrotation
						End Site
						{
							OFFSET -0.000000 -0.100000 0.000000
						}
					}
					JOINT HEAD
					{
						OFFSET 0.000000 0.070000 0.020000
						CHANNELS 3 Xrotation Yrotation Zrotation
						End Site
						{
							OFFSET -0.000000 -0.100000 0.000000
						}
					}
				}
				JOINT NECK
				{
					OFFSET 0.000000 0.020000 0.000000
					CHANNELS 3 Xrotation Yrotation Zrotation
					End Site
					{
						OFFSET -0.000000 -0.100000 0.000000
					}
				}
			}
			JOINT mCollarLeft
			{
				OFFSET 0.085000 0.165000 -0.021000
				CHANNELS 3 Xrotation Yrotation Zrotation
				JOINT mShoulderLeft
				{
					OFFSET 0.079000 0.000000 -0.000000
					CHANNELS 3 Xrotation Yrotation Zrotation
					JOINT mElbowLeft
					{
						OFFSET 0.248000 0.000000 -0.000000
						CHANNELS 3 Xrotation Yrotation Zrotation
						JOINT mWristLeft
						{
							OFFSET 0.205000 0.000000 -0.000000
							CHANNELS 3 Xrotation Yrotation Zrotation
							JOINT L_HAND
							{
								OFFSET 0.050000 0.000000 0.010000
								CHANNELS 3 Xrotation Yrotation Zrotation
								End Site
								{
									OFFSET 0.000000 -0.100000 0.000000
								}
							}
						}
						JOINT L_LOWER_ARM
						{
							OFFSET 0.100000 0.000000 -0.000000
							CHANNELS 3 Xrotation Yrotation Zrotation
							End Site
							{
								OFFSET 0.000000 -0.100000 0.000000
							}
						}
					}
					JOINT L_UPPER_ARM
					{
						OFFSET 0.120000 0.010000 -0.000000
						CHANNELS 3 Xrotation Yrotation Zrotation
						End Site
						{
							OFFSET 0.000000 -0.100000 0.000000
						}
					}
				}
				JOINT L_CLAVICLE
				{
					OFFSET 0.000000 0.020000 0.020000
					CHANNELS 3 Xrotation Yrotation Zrotation
					End Site
					{
						OFFSET -0.000000 -0.100000 0.000000
					}
				}
			}
			JOINT mCollarRight
			{
				OFFSET -0.085000 0.165000 -0.021000
				CHANNELS 3 Xrotation Yrotation Zrotation
				JOINT mShoulderRight
				{
					OFFSET -0.079000 0.000000 0.000000
					CHANNELS 3 Xrotation Yrotation Zrotation
					JOINT mElbowRight
					{
						OFFSET -0.248000 0.000000 0.000000
						CHANNELS 3 Xrotation Yrotation Zrotation
						JOINT mWristRight
						{
							OFFSET -0.205000 0.000000 0.000000
							CHANNELS 3 Xrotation Yrotation Zrotation
							JOINT R_HAND
							{
								OFFSET -0.050000 0.000000 0.010000
								CHANNELS 3 Xrotation Yrotation Zrotation
								End Site
								{
									OFFSET 0.000000 -0.100000 0.000000
								}
							}
						}
						JOINT R_LOWER_ARM
						{
							OFFSET -0.100000 0.000000 0.000000
							CHANNELS 3 Xrotation Yrotation Zrotation
							End Site
							{
								OFFSET 0.000000 -0.100000 0.000000
							}
						}
					}
					JOINT R_UPPER_ARM
					{
						OFFSET -0.120000 0.010000 0.000000
						CHANNELS 3 Xrotation Yrotation Zrotation
						End Site
						{
							OFFSET 0.000000 -0.100000 0.000000
						}
					}
				}
				JOINT R_CLAVICLE
				{
					OFFSET 0.000000 0.020000 0.020000
					CHANNELS 3 Xrotation Yrotation Zrotation
					End Site
					{
						OFFSET -0.000000 -0.100000 0.000000
					}
				}
			}
			JOINT CHEST
			{
				OFFSET 0.000000 0.070000 0.028000
				CHANNELS 3 Xrotation Yrotation Zrotation
				End Site
				{
					OFFSET -0.000000 -0.100000 0.000000
				}
			}
			JOINT LEFT_PEC
			{
				OFFSET 0.082000 0.042000 0.119000
				CHANNELS 3 Xrotation Yrotation Zrotation
				End Site
				{
					OFFSET 0.000000 -0.100000 0.000000
				}
			}
			JOINT RIGHT_PEC
			{
				OFFSET -0.082000 0.042000 0.119000
				CHANNELS 3 Xrotation Yrotation Zrotation
				End Site
				{
					OFFSET 0.000000 -0.100000 0.000000
				}
			}
			JOINT UPPER_BACK
			{
				OFFSET 0.000000 0.017253 0.000000
				CHANNELS 3 Xrotation Yrotation Zrotation
				End Site
				{
					OFFSET -0.000000 -0.100000 0.000000
				}
			}
		}
		JOINT BELLY
		{
			OFFSET 0.000000 0.040000 0.028000
			CHANNELS 3 Xrotation Yrotation Zrotation
			End Site
			{
				OFFSET -0.000000 -0.100000 0.000000
			}
		}
		JOINT LOWER_BACK
		{
			OFFSET 0.000000 0.022848 -0.000000
			CHANNELS 3 Xrotation Yrotation Zrotation
			End Site
			{
				OFFSET -0.000000 -0.100000 0.000000
			}
		}
	}
	JOINT mHipRight
	{
		OFFSET -0.129000 -0.041000 0.034000
		CHANNELS 3 Xrotation Yrotation Zrotation
		JOINT mKneeRight
		{
			OFFSET 0.049000 -0.491000 -0.001000
			CHANNELS 3 Xrotation Yrotation Zrotation
			JOINT mAnkleRight
			{
				OFFSET -0.000000 -0.468000 -0.029000
				CHANNELS 3 Xrotation Yrotation Zrotation
				JOINT mFootRight
				{
					OFFSET 0.000000 -0.061000 0.112000
					CHANNELS 3 Xrotation Yrotation Zrotation
					JOINT mToeRight
					{
						OFFSET 0.000000 0.000000 0.109000
						CHANNELS 3 Xrotation Yrotation Zrotation
						End Site
						{
							OFFSET -0.000000 -0.100000 0.000000
						}
					}
				}
				JOINT R_FOOT
				{
					OFFSET 0.000000 -0.041000 0.077000
					CHANNELS 3 Xrotation Yrotation Zrotation
					End Site
					{
						OFFSET 0.000000 -0.100000 0.000000
					}
				}
			}
			JOINT R_LOWER_LEG
			{
				OFFSET -0.000000 -0.200000 -0.020000
				CHANNELS 3 Xrotation Yrotation Zrotation
				End Site
				{
					OFFSET -0.000000 -0.100000 0.000000
				}
			}
		}
		JOINT R_UPPER_LEG
		{
			OFFSET 0.050000 -0.220000 -0.020000
			CHANNELS 3 Xrotation Yrotation Zrotation
			End Site
			{
				OFFSET -0.000000 -0.100000 0.000000
			}
		}
	}
	JOINT mHipLeft
	{
		OFFSET 0.127000 -0.041000 0.034000
		CHANNELS 3 Xrotation Yrotation Zrotation
		JOINT mKneeLeft
		{
			OFFSET -0.046000 -0.491000 -0.001000
			CHANNELS 3 Xrotation Yrotation Zrotation
			JOINT mAnkleLeft
			{
				OFFSET 0.001000 -0.468000 -0.029000
				CHANNELS 3 Xrotation Yrotation Zrotation
				JOINT mFootLeft
				{
					OFFSET 0.000000 -0.061000 0.112000
					CHANNELS 3 Xrotation Yrotation Zrotation
					JOINT mToeLeft
					{
						OFFSET 0.000000 0.000000 0.109000
						CHANNELS 3 Xrotation Yrotation Zrotation
						End Site
						{
							OFFSET -0.000000 -0.100000 0.000000
						}
					}
				}
				JOINT L_FOOT
				{
					OFFSET 0.000000 -0.041000 0.077000
					CHANNELS 3 Xrotation Yrotation Zrotation
					End Site
					{
						OFFSET 0.000000 -0.100000 0.000000
					}
				}
			}
			JOINT L_LOWER_LEG
			{
				OFFSET -0.000000 -0.200000 -0.020000
				CHANNELS 3 Xrotation Yrotation Zrotation
				End Site
				{
					OFFSET -0.000000 -0.100000 0.000000
				}
			}
		}
		JOINT L_UPPER_LEG
		{
			OFFSET -0.050000 -0.220000 -0.020000
			CHANNELS 3 Xrotation Yrotation Zrotation
			End Site
			{
				OFFSET -0.000000 -0.100000 0.000000
			}
		}
	}
	JOINT PELVIS
	{
		OFFSET -0.000000 -0.020000 -0.010000
		CHANNELS 3 Xrotation Yrotation Zrotation
		End Site
		{
			OFFSET -0.000000 -0.100000 0.000000
		}
	}
	JOINT BUTT
	{
		OFFSET -0.000000 -0.100000 -0.060000
		CHANNELS 3 Xrotation Yrotation Zrotation
		End Site
		{
			OFFSET -0.000000 -0.100000 0.000000
		}
	}
}
MOTION
Frames: 4
Frame Time: 0.022222
-22.563173 1.066998 -5.481945 -25.076507 -11.581460 8.204122 56.237476 17.353764 -26.683896 -16.836020 0.489857 13.438178 5.962393 -0.000006 -0.000001 23.457684 -0.000002 -0.000001 2.152271 2.072942 -182.152280 -2.152270 2.234656 -2.152269 -2.152270 2.234656 -2.152269 0.000001 -0.000001 0.000000 0.000000 -0.000001 -0.000001 -1.736347 -14.812595 -6.762178 27.347844 2.719786 -84.757955 0.000002 0.258649 -0.000002 5.627476 -1.475373 -29.360378 -0.000000 0.000005 -0.000003 0.000001 -0.000000 -0.000000 -0.000000 0.000005 0.000001 -0.000000 -0.000000 0.000000 50.672630 18.624367 -8.522935 -75.498521 12.055115 55.239104 0.000001 6.464879 0.000010 -6.331223 1.904926 -33.461701 0.000002 -0.000006 -0.000001 -0.000001 -0.000001 0.000000 0.000001 0.000000 -0.000001 0.000003 0.000001 -0.000000 -0.000000 -0.000003 -0.000001 0.000001 -0.000004 -0.000000 0.000002 -0.000001 -0.000000 -0.000001 -0.000003 0.000000 0.000001 -0.000001 0.000002 -0.000001 -0.000001 0.000000 41.115352 3.728499 -1.477907 61.589455 25.571149 80.309945 52.688438 20.486968 19.123531 2.152303 -2.234673 -2.152316 -0.000001 0.000001 0.000000 -0.000022 -0.000006 0.000008 -0.000008 0.000001 -0.000004 0.000000 0.000003 0.000139 -51.016145 -15.174198 22.604658 31.770082 -0.350228 -1.913325 48.052488 -13.651324 5.307973 2.152352 -2.234604 -2.152411 -0.000000 0.000001 -0.000005 0.000051 0.000056 -0.000106 0.000018 0.000003 0.000003 -0.000000 0.000006 -0.000073 0.000000 0.000000 0.000001 0.000000 0.000000 0.000001 
-2.226251 57.747177 53.084469 59.150955 -18.810898 7.882592 91.535900 43.523045 -84.258764 -60.285845 -136.826420 -68.015789 -37.767517 -12.155750 -24.507958 -86.670818 15.600716 -48.515967 1.972322 1.905600 -181.972318 -1.972316 2.041397 -1.972318 -1.972316 2.041397 -1.972318 0.000002 0.000004 0.000000 0.000004 0.000001 0.000003 -83.376625 -50.683169 -33.575653 -91.322033 -22.136705 20.820256 45.832700 -123.190876 45.832680 -18.158461 -31.060617 59.014481 -0.000001 0.000005 0.000000 -0.000002 0.000003 -0.000000 -0.000001 -0.000002 0.000000 -0.000001 -0.000001 -0.000001 112.330753 -15.411874 51.946993 16.597310 -28.071799 96.551609 12.944051 119.299813 12.944063 36.725777 6.203335 76.760815 -0.000001 0.000003 -0.000003 -0.000001 -0.000001 -0.000001 -0.000000 0.000005 -0.000002 -0.000002 0.000000 0.000003 -0.000000 -0.000002 0.000002 -0.000001 -0.000000 0.000002 -0.000000 -0.000003 0.000002 -0.000000 -0.000001 -0.000000 -0.000001 -0.000001 0.000003 -0.000001 -0.000001 0.000003 -47.816990 120.319082 -43.798950 63.251868 25.241507 80.730439 50.320865 22.370548 21.353287 1.972603 -2.041426 -1.972287 0.000006 0.000000 0.000004 0.000254 -0.000041 0.000078 0.000035 -0.000022 -0.000003 -0.000002 -0.000002 0.000012 -54.294789 -36.162662 -53.919337 -29.855771 22.181374 -9.735058 84.946182 13.684607 8.839832 1.972483 -2.041335 -1.972449 0.000002 0.000001 -0.000000 0.000143 0.000055 -0.000100 0.000051 0.000020 0.000000 -0.000001 -0.000001 0.000029 -0.000002 -0.000000 0.000001 -0.000002 -0.000000 0.000001 
-2.192680 57.786751 53.124352 41.956691 2.867542 13.706035 92.040378 72.829535 -85.293210 -88.748070 -133.314228 -73.790973 -45.088623 -0.118395 -0.286443 -82.481747 14.678701 -24.415601 -1.430924 -1.467087 -178.569080 1.430921 -1.395627 1.430923 1.430921 -1.395627 1.430923 0.000001 -0.000001 -0.000000 -0.000000 0.000001 -0.000000 -1.927330 0.891837 54.179762 -80.965472 -8.311958 32.884103 1.461029 -102.057165 1.461048 -10.536787 -6.279950 63.827189 0.000002 -0.000001 -0.000002 -0.000002 -0.000000 0.000001 -0.000002 -0.000000 -0.000000 -0.000000 0.000000 0.000001 35.022335 -25.421529 -23.163415 -8.678486 -29.545114 67.748380 0.156787 113.982818 0.156797 11.366093 8.231374 73.521222 0.000000 0.000004 -0.000000 0.000002 0.000000 -0.000001 0.000004 -0.000002 -0.000002 0.000006 -0.000001 0.000002 0.000000 -0.000001 0.000001 -0.000000 -0.000001 0.000001 0.000000 -0.000001 0.000001 -0.000000 -0.000000 0.000001 0.000000 0.000000 0.000005 0.000001 0.000000 0.000006 -26.672211 112.247404 -55.485291 63.325908 24.397929 80.171032 49.713013 22.759601 21.928754 -1.430741 1.395573 1.431043 0.000002 0.000000 0.000001 0.000201 -0.000052 0.000092 0.000016 -0.000027 0.000000 -0.000002 -0.000002 0.000002 -32.969583 -59.074736 -33.509851 -14.521421 0.057639 0.701220 61.373150 33.516292 26.862921 -1.430892 1.395758 1.430702 -0.000000 0.000001 -0.000003 0.000052 0.000131 -0.000238 0.000014 0.000011 0.000003 -0.000002 -0.000004 -0.000006 -0.000000 0.000001 0.000000 -0.000000 0.000001 0.000000 
-2.217100 57.762333 53.099934 39.268028 3.225290 14.185836 87.185848 72.885222 -79.883762 -93.702341 -131.968175 -77.429729 -43.921846 0.276915 0.651137 -79.619665 13.849890 -23.229460 -1.522293 -1.563262 -178.477692 1.522295 -1.482382 1.522294 1.522295 -1.482382 1.522294 0.000000 0.000001 -0.000001 0.000000 -0.000001 0.000000 4.169786 10.853917 47.811765 -79.182649 -5.352884 31.847137 -4.627740 -98.811117 -4.627752 -10.023635 -4.846178 61.380089 -0.000001 0.000002 -0.000001 -0.000002 -0.000002 0.000000 0.000001 0.000001 0.000003 -0.000001 0.000000 -0.000001 26.494227 -8.513446 -31.309392 -12.083533 -28.462757 65.383147 -0.360506 110.860657 -0.360490 10.177388 7.859940 70.812635 -0.000000 -0.000000 0.000000 -0.000003 -0.000000 0.000000 -0.000001 0.000002 -0.000002 0.000002 -0.000001 -0.000001 0.000001 -0.000000 -0.000000 0.000001 -0.000001 -0.000002 0.000001 -0.000000 -0.000002 0.000001 -0.000001 -0.000000 0.000000 -0.000001 -0.000000 0.000000 -0.000001 -0.000002 -24.942095 109.270186 -54.447242 62.982233 24.432826 80.056470 50.201515 22.390827 21.467520 -1.522141 1.482341 1.522404 -0.000001 -0.000001 -0.000000 0.000176 -0.000039 0.000073 0.000016 -0.000025 0.000001 -0.000000 -0.000001 0.000001 -31.238096 -58.424748 -30.037854 -12.432187 -0.735738 1.163696 60.084314 32.660578 27.204929 -1.522273 1.482512 1.522078 -0.000001 0.000001 -0.000000 0.000048 0.000129 -0.000238 0.000007 0.000012 0.000000 -0.000003 -0.000002 -0.000009 0.000003 -0.000001 0.000001 0.000003 -0.000001 0.000001 
